HIERARCHY
ROOT Hips
{
	OFFSET 0.000000 0.000000 0.000000 
	CHANNELS 6 Xposition Yposition Zposition Yrotation Zrotation Xrotation 
	JOINT Lumbar
	{
		OFFSET 0.000000 0.000000 0.000000 
		CHANNELS 3 Zrotation Xrotation Yrotation
		JOINT Neck
		{
			OFFSET 0.000000 0.445665 0.000000 
			CHANNELS 3 Zrotation Xrotation Yrotation
			End Site
			{
				OFFSET 0.000000 0.227535 0.000000 
			}
		}
		JOINT RightShoulder
		{
			OFFSET 0.019635 0.377685 0.194865 
			CHANNELS 3 Zrotation Xrotation Yrotation
			JOINT RightElbow
			{
				OFFSET 0.000000 -0.243375 0.000000 
				CHANNELS 2 Zrotation Yrotation
				JOINT RightWrist
				{
					OFFSET 0.000000 -0.264825 0.000000 
					CHANNELS 2 Zrotation Xrotation
					End Site
					{
						OFFSET 0.006600 -0.176220 0.000990 
					}
				}
			}
		}
		JOINT LeftShoulder
		{
			OFFSET 0.019635 0.377685 -0.194865 
			CHANNELS 3 Zrotation Xrotation Yrotation
			JOINT LeftElbow
			{
				OFFSET 0.000000 -0.243375 0.000000 
				CHANNELS 2 Zrotation Yrotation
				JOINT LeftWrist
				{
					OFFSET 0.000000 -0.264825 0.000000 
					CHANNELS 2 Zrotation Xrotation
					End Site
					{
						OFFSET 0.006600 -0.176220 -0.000990 
					}
				}
			}
		}
	}
	JOINT RightHip
	{
		OFFSET 0.052140 -0.069960 0.075570 
		CHANNELS 3 Zrotation Xrotation Yrotation
		JOINT RightKnee
		{
			OFFSET 0.000000 -0.402270 0.000000 
			CHANNELS 1 Zrotation
			JOINT RightAnkle
			{
				OFFSET 0.000000 -0.404085 0.000000 
				CHANNELS 3 Zrotation Xrotation Yrotation
				End Site
				{
					OFFSET 0.204105 -0.089430 0.008415 
				}
			}
		}
	}
	JOINT LeftHip
	{
		OFFSET 0.052140 -0.069960 -0.075570 
		CHANNELS 3 Zrotation Xrotation Yrotation
		JOINT LeftKnee
		{
			OFFSET 0.000000 -0.402270 0.000000 
			CHANNELS 1 Zrotation
			JOINT LeftAnkle
			{
				OFFSET 0.000000 -0.404085 0.000000 
				CHANNELS 3 Zrotation Xrotation Yrotation
				End Site
				{
					OFFSET 0.204105 -0.089430 -0.008415 
				}
			}
		}
	}
}
MOTION
Frames: 22
Frame Time: 0.02
-0.00099 -0.00016 0.00164 -177.91337 -31.98624 -1.30624 44.16892 2.65735 -6.98675 -10.67009 -1.69365 -1.16187 -22.0584 -15.16614 7.20631 41.73408 91.4418 5.6167 1.18149 -29.12073 14.50346 -8.4483 38.07364 -97.80014 10.44751 -1.60485 34.69427 0.36392 -18.13184 -21.05922 -7.24629 -2.97372 -3.69676 35.65698 8.78798 10.05452 -27.02391 -8.80996 3.71906 4.15371
-0.00117 -0.00019 0.00105 -177.6096 -31.73097 -1.29022 43.98105 2.59751 -6.84022 -10.77603 -1.68822 -1.16399 -22.48929 -15.11676 6.90728 41.5057 91.33165 5.57698 1.20006 -29.33743 14.65578 -8.25654 38.28609 -97.81509 10.48987 -1.59853 34.33714 0.36377 -18.52105 -20.99268 -7.23738 -2.95427 -3.68922 35.39765 8.85898 10.11739 -26.96995 -8.7915 3.69163 4.14011
-0.00134 -0.00022 0.00047 -177.3064 -31.47664 -1.27423 43.79395 2.53778 -6.69399 -10.8817 -1.68287 -1.1661 -22.91913 -15.06757 6.6092 41.27799 91.22211 5.5375 1.21857 -29.55337 14.80785 -8.06534 38.49828 -97.82989 10.53207 -1.5922 33.98132 0.36376 -18.90882 -20.92641 -7.22851 -2.93494 -3.68174 35.13944 8.9297 10.17928 -26.91623 -8.77313 3.66432 4.12657
-0.00151 -0.00025 -0.00012 -177.00352 -31.2222 -1.25826 43.60671 2.47813 -6.54788 -10.98733 -1.67748 -1.16821 -23.34878 -15.01835 6.31109 41.05032 91.11235 5.49793 1.23708 -29.76939 14.95973 -7.87417 38.71012 -97.84476 10.57428 -1.58589 33.62534 0.36363 -19.29681 -20.8601 -7.21962 -2.91556 -3.67423 34.88099 9.00046 10.24178 -26.86246 -8.75473 3.63699 4.11301
-0.00168 -0.00028 -0.0007 -176.70019 -30.96671 -1.24228 43.41855 2.41838 -6.40152 -11.0932 -1.67196 -1.17033 -23.77928 -14.96892 6.01205 40.82192 91.00188 5.45808 1.25565 -29.98619 15.11179 -7.68242 38.92212 -97.85987 10.61668 -1.57958 33.26791 0.36335 -19.68625 -20.79347 -7.21069 -2.89604 -3.66665 34.62125 9.07156 10.3057 -26.80842 -8.73623 3.60953 4.09939
-0.00185 -0.00031 -0.00129 -176.39725 -30.7148 -1.22626 43.23364 2.35868 -6.2556 -11.19846 -1.66695 -1.17244 -24.20767 -14.92024 5.71599 40.59567 90.89431 5.41939 1.27404 -30.20032 15.26386 -7.49237 39.1347 -97.87406 10.65848 -1.57323 32.91546 0.3639 -20.07045 -20.72795 -7.20195 -2.8771 -3.65936 34.36621 9.14152 10.36339 -26.75535 -8.71813 3.5825 4.086
-0.00202 -0.00034 -0.00187 -176.09393 -30.45611 -1.21034 43.04258 2.29899 -6.10894 -11.30482 -1.66096 -1.17455 -24.64007 -14.87011 5.41423 40.36548 90.78104 5.37839 1.29277 -30.4196 15.41573 -7.29918 39.34577 -97.88997 10.7014 -1.56697 32.55356 0.36271 -20.46494 -20.66032 -7.19281 -2.85701 -3.6515 34.10219 9.21358 10.43317 -26.70043 -8.69926 3.55468 4.07219
-0.00219 -0.00037 -0.00246 -175.79085 -30.20339 -1.19433 42.85687 2.23924 -5.96296 -11.41019 -1.6558 -1.17669 -25.06832 -14.82133 5.1178 40.13869 90.67296 5.33954 1.31119 -30.63412 15.56782 -7.10876 39.55843 -97.90449 10.74337 -1.56064 32.20007 0.36325 -20.84962 -20.59456 -7.18408 -2.83802 -3.64418 33.84612 9.2839 10.49247 -26.64714 -8.68106 3.52753 4.05872
-0.00236 -0.00041 -0.00305 -175.48833 -29.95902 -1.17821 42.67893 2.17958 -5.81776 -11.51429 -1.65199 -1.17877 -25.49353 -14.77413 4.82746 39.91686 90.57151 5.30326 1.32923 -30.84291 15.72013 -6.92216 39.77242 -97.9165 10.78382 -1.55413 31.85796 0.36544 -21.2237 -20.53139 -7.17568 -2.8202 -3.63744 33.60101 9.35135 10.53621 -26.59615 -8.66384 3.50143 4.04582
-0.00254 -0.00043 -0.0036 -175.18336 -29.66979 -1.16271 42.46 2.11986 -5.66791 -11.62553 -1.64143 -1.1809 -25.94234 -14.71762 4.50081 39.66893 90.43276 5.25204 1.34945 -31.08494 15.87102 -6.71487 39.97693 -97.94052 10.83193 -1.54838 31.45363 0.35674 -21.66297 -20.45421 -7.16487 -2.79512 -3.62716 33.29656 9.43305 10.66121 -26.53284 -8.64148 3.46998 4.0301
-0.00269 -0.00047 -0.00425 -174.88313 -29.47317 -1.14589 42.32518 2.06001 -5.52798 -11.72181 -1.64445 -1.18308 -26.3374 -14.68087 4.25157 39.47451 90.37217 5.2324 1.36505 -31.25667 16.02496 -6.55041 40.20252 -97.94076 10.8646 -1.5412 31.17849 0.3719 -21.96199 -20.40601 -7.15948 -2.7857 -3.62448 33.11491 9.48617 10.62014 -26.49495 -8.62962 3.44936 4.02007
-0.00274 -0.00056 -0.00514 -174.59938 -29.5504 -1.12543 42.44311 2.00199 -5.41405 -11.77587 -1.69033 -1.18404 -26.61468 -14.69774 4.21018 39.44075 90.53246 5.2998 1.36811 -31.23469 16.18723 -6.51147 40.47769 -97.86754 10.85022 -1.52958 31.27916 0.44558 -21.89645 -20.44294 -7.16631 -2.8167 -3.64152 33.29397 9.44755 10.07293 -26.53244 -8.64985 3.46267 4.028
-0.00274 -0.00067 -0.00613 -174.31979 -29.71728 -1.10361 42.64157 1.94346 -5.30989 -11.8151 -1.74864 -1.18528 -26.83145 -14.73437 4.24722 39.45786 90.76985 5.39868 1.36649 -31.14205 16.35261 -6.51412 40.7754 -97.77566 10.82228 -1.51722 31.50602 0.54426 -21.68747 -20.508 -7.17899 -2.86378 -3.66634 33.59245 9.38242 9.36726 -26.59447 -8.68014 3.48618 4.04128
-0.00275 -0.00078 -0.0071 -174.03598 -29.82986 -1.08248 42.7887 1.88367 -5.20256 -11.86194 -1.79784 -1.18731 -27.05779 -14.76261 4.25156 39.44306 90.96804 5.48316 1.3669 -31.08256 16.51655 -6.49241 41.06838 -97.69293 10.80222 -1.50478 31.6607 0.63635 -21.52937 -20.55646 -7.19083 -2.90533 -3.68843 33.82012 9.33848 8.76832 -26.64156 -8.70354 3.50218 4.05054
-0.00282 -0.00088 -0.00797 -173.76186 -29.99857 -1.0612 42.9977 1.83001 -5.09157 -11.90523 -1.86241 -1.18554 -27.36389 -14.78919 4.24428 39.46677 91.18478 5.56886 1.3677 -31.01945 16.68043 -6.49353 41.33876 -97.59211 10.77047 -1.49162 31.87655 0.70937 -21.42658 -20.62081 -7.19533 -2.93991 -3.7074 34.11571 9.25709 8.02672 -26.70453 -8.73626 3.52997 4.06627
-0.00275 -0.00098 -0.00908 -173.46875 -30.07325 -1.03972 43.09757 1.76367 -4.98842 -11.9522 -1.89701 -1.19169 -27.48426 -14.82293 4.27896 39.42073 91.38013 5.65852 1.36659 -30.94599 16.84537 -6.45734 41.66076 -97.54365 10.76542 -1.48287 31.99702 0.82675 -21.18064 -20.65907 -7.21607 -2.99218 -3.7344 34.30081 9.24593 7.53941 -26.74048 -8.75255 3.53609 4.07008
-0.00237 -0.00106 -0.01083 -173.11983 -29.85211 -1.01952 42.86989 1.6607 -4.92217 -12.01443 -1.85334 -1.2203 -27.15151 -14.87976 4.41747 39.18359 91.5058 5.75923 1.36115 -30.87113 17.01089 -6.30517 42.12646 -97.46837 10.78601 -1.45833 31.80497 1.07156 -20.52245 -20.61526 -7.28407 -3.09494 -3.78426 34.12857 9.44818 7.84004 -26.69374 -8.7159 3.47568 4.03722
-0.00184 -0.00112 -0.01282 -172.75172 -29.53592 -0.99883 42.53053 1.54538 -4.86001 -12.08035 -1.77765 -1.25678 -26.62549 -14.94158 4.59437 38.87234 91.60548 5.86125 1.35394 -30.78628 17.17766 -6.11503 42.64201 -97.47061 10.84089 -1.44215 31.51612 1.35807 -19.73447 -20.54477 -7.36755 -3.21396 -3.84147 33.84559 9.71966 8.39388 -26.61951 -8.66329 3.39382 3.99259
-0.00134 -0.00118 -0.0147 -172.39443 -29.27249 -0.97748 42.24689 1.43673 -4.78457 -12.14396 -1.71174 -1.28921 -26.15864 -14.99572 4.74868 38.58525 91.71193 5.95769 1.34773 -30.69981 17.34492 -5.94342 43.1304 -97.56381 10.91717 -1.44234 31.28332 1.61826 -19.0407 -20.48855 -7.44132 -3.32179 -3.89357 33.62795 9.95087 8.80033 -26.55901 -8.62135 3.32462 3.955
-0.00099 -0.00127 -0.01657 -172.02996 -28.97163 -0.96009 41.94623 1.32324 -4.75829 -12.2108 -1.66653 -1.3236 -25.81103 -15.07335 4.9265 38.33818 91.84332 6.07676 1.34075 -30.63772 17.50784 -5.76578 43.63884 -97.1593 10.84777 -1.36294 31.00332 1.91047 -18.19508 -20.42433 -7.5263 -3.44597 -3.95329 33.3498 10.21815 9.33539 -26.49346 -8.56544 3.24378 3.91064
-0.00029 -0.0013 -0.01853 -171.67391 -28.72523 -0.93399 41.65205 1.21737 -4.6297 -12.27066 -1.57027 -1.35582 -25.16953 -15.10306 5.06462 37.99194 91.91436 6.14796 1.33473 -30.52235 17.68004 -5.59377 44.11677 -97.76534 11.07642 -1.44431 30.79788 2.14552 -17.63446 -20.36996 -7.59187 -3.54008 -3.99894 33.17146 10.42735 9.66763 -26.43243 -8.53458 3.18156 3.87729
0.00126 -0.00115 -0.02076 -171.36143 -28.65005 -0.8869 41.41421 1.13167 -4.2244 -12.32129 -1.34233 -1.37976 -23.76711 -14.99872 5.07348 37.3687 91.83534 6.09204 1.3342 -30.2717 17.87689 -5.42322 44.49967 -101.53493 12.23934 -2.02881 30.81443 2.21252 -17.91352 -20.35021 -7.59739 -3.54421 -4.0025 33.28178 10.45665 9.35302 -26.38316 -8.57805 3.1795 3.87903
